<?xml version="1.0" encoding="UTF-8" standalone="no"?>

<svg
   xmlns:dc="http://purl.org/dc/elements/1.1/"
   xmlns:cc="http://creativecommons.org/ns#"
   xmlns:rdf="http://www.w3.org/1999/02/22-rdf-syntax-ns#"
   xmlns:svg="http://www.w3.org/2000/svg"
   xmlns="http://www.w3.org/2000/svg"
   xmlns:sodipodi="http://sodipodi.sourceforge.net/DTD/sodipodi-0.dtd"
   xmlns:inkscape="http://www.inkscape.org/namespaces/inkscape"
   width="266.05508mm"
   height="122.6449mm"
   viewBox="0 0 942.71486 434.56853"
   id="svg2"
   version="1.1"
   inkscape:version="0.91 r13725"
   sodipodi:docname="Logo Logo Black with White Background.svg">
  <defs
     id="defs4" />
  <sodipodi:namedview
     id="base"
     pagecolor="#ffffff"
     bordercolor="#666666"
     borderopacity="1.0"
     inkscape:pageopacity="0.0"
     inkscape:pageshadow="2"
     inkscape:zoom="0.35355339"
     inkscape:cx="-60.40651"
     inkscape:cy="-185.8618"
     inkscape:document-units="px"
     inkscape:current-layer="layer1"
     showgrid="false"
     fit-margin-top="0"
     fit-margin-left="0"
     fit-margin-right="0"
     fit-margin-bottom="0"
     inkscape:window-width="1920"
     inkscape:window-height="1080"
     inkscape:window-x="0"
     inkscape:window-y="0"
     inkscape:window-maximized="0" />
  <metadata
     id="metadata7">
    <rdf:RDF>
      <cc:Work
         rdf:about="">
        <dc:format>image/svg+xml</dc:format>
        <dc:type
           rdf:resource="http://purl.org/dc/dcmitype/StillImage" />
        <dc:title></dc:title>
      </cc:Work>
    </rdf:RDF>
  </metadata>
  <g
     inkscape:label="Layer 1"
     inkscape:groupmode="layer"
     id="layer1"
     transform="translate(99.310204,-308.89682)">
    <rect
       style="color:#000000;clip-rule:nonzero;display:inline;overflow:visible;visibility:visible;opacity:1;isolation:auto;mix-blend-mode:normal;color-interpolation:sRGB;color-interpolation-filters:linearRGB;solid-color:#000000;solid-opacity:1;fill:#ffffff;fill-opacity:1;fill-rule:nonzero;stroke:none;stroke-width:14;stroke-linecap:round;stroke-linejoin:round;stroke-miterlimit:4;stroke-dasharray:none;stroke-dashoffset:0;stroke-opacity:1;color-rendering:auto;image-rendering:auto;shape-rendering:auto;text-rendering:auto;enable-background:accumulate"
       id="rect4275"
       width="942.71484"
       height="434.56854"
       x="-99.310204"
       y="308.89682"
       rx="137.95827"
       ry="137.95827" />
    <path
       style="color:#000000;font-style:normal;font-variant:normal;font-weight:normal;font-stretch:normal;font-size:medium;line-height:125%;font-family:'Lilita One';-inkscape-font-specification:'Lilita One';text-indent:0;text-align:center;text-decoration:none;text-decoration-line:none;text-decoration-style:solid;text-decoration-color:#000000;letter-spacing:normal;word-spacing:normal;text-transform:none;direction:ltr;block-progression:tb;writing-mode:lr-tb;baseline-shift:baseline;text-anchor:middle;white-space:normal;clip-rule:nonzero;visibility:visible;isolation:auto;mix-blend-mode:normal;color-interpolation:sRGB;color-interpolation-filters:linearRGB;solid-color:#000000;solid-opacity:1;fill:#000000;fill-opacity:1;fill-rule:nonzero;stroke:none;stroke-width:14;stroke-linecap:round;stroke-linejoin:round;stroke-miterlimit:4;stroke-dasharray:none;stroke-dashoffset:0;stroke-opacity:1;color-rendering:auto;image-rendering:auto;shape-rendering:auto;text-rendering:auto"
       d="M 538.9082 53.46875 C 510.18214 53.7765 483.02783 64.179098 455.89844 89.548828 C 434.14844 113.79883 423.27344 169.29883 423.27344 208.04883 C 423.27344 253.54883 434.39844 306.04883 456.64844 329.54883 C 485.45873 359.42089 535.28681 371.19788 580.14844 359.92383 C 595.39844 356.42383 605.52344 352.92383 610.52344 349.42383 L 610.80469 327.34375 C 588.7889 296.70536 579.9207 258.5897 584.66797 223.16602 L 583.14844 223.04883 C 578.39844 223.04883 572.39844 223.67383 565.14844 224.92383 C 557.89844 225.92383 554.27344 228.17383 554.27344 231.67383 L 553.52344 282.67383 C 553.63686 302.27414 523.90423 288.94342 515.89844 276.29883 C 506.14844 265.29883 501.27344 231.29883 501.27344 210.29883 C 501.27344 189.29883 506.02344 149.79884 515.52344 139.79883 C 527.35384 127.67881 539.85061 120.86393 557.64844 128.17383 C 564.64844 130.17383 569.27344 132.17384 571.52344 134.17383 C 574.02344 135.92383 576.27344 136.79883 578.27344 136.79883 C 580.52344 136.79883 584.02344 134.29882 588.77344 129.29883 C 593.52344 124.29883 597.77344 116.79883 601.52344 106.79883 C 605.27344 96.548828 607.14844 88.673828 607.14844 83.173828 C 607.14844 77.673828 607.02344 73.923828 606.77344 71.923828 C 601.52344 66.173828 591.77344 61.673828 577.52344 58.423828 C 565.24765 55.365788 553.3382 53.607403 541.69336 53.470703 C 540.76339 53.459803 539.83485 53.45885 538.9082 53.46875 z M 343.83984 63.117188 C 316.23202 62.961498 287.55276 73.665996 262.375 95.884766 C 240.12501 118.63477 229 170.13477 229 214.38477 C 229 258.38477 240.00001 305.88477 262 328.88477 C 304.50003 371.5128 369.66423 374.88752 418.125 330.38477 C 423.56775 324.94203 428.33982 317.96548 432.45117 309.88086 C 419.67043 283.02712 413.27344 244.53338 413.27344 210.04883 C 413.27344 180.84296 419.45517 142.12818 431.81055 114.44336 C 428.03939 106.92534 423.72979 100.47617 418.875 95.509766 C 397.984 74.288786 371.44767 63.272888 343.83984 63.117188 z M 180.20703 96.384766 C 154.95703 96.384766 144.88673 99.673276 142.33203 104.25977 C 113.21923 156.52605 114.49133 249.3055 112.33203 337.50977 C 112.19133 343.25805 113.95703 348.38477 117.20703 352.88477 C 120.45703 357.38477 124.83203 359.63477 130.33203 359.63477 L 245.83203 359.63477 C 250.33207 359.63477 253.58203 353.63477 255.58203 341.63477 C 255.72297 340.46031 255.83672 339.29455 255.95117 338.12891 C 255.61043 337.79496 255.26759 337.46587 254.92969 337.12695 C 243.97671 325.67614 235.75195 308.15074 230.25195 288.00977 L 188.45703 288.00977 C 188.76633 224.91392 223.67183 114.6221 218.45703 104.25977 C 216.09703 99.570126 205.70704 96.384766 180.20703 96.384766 z M 711.61719 113.75977 C 676.36719 113.75977 647.49219 125.13477 624.99219 147.88477 C 579.87589 195.17145 580.70562 275.72825 624.61719 328.88477 C 646.86719 351.88477 675.49219 363.38477 710.49219 363.38477 C 745.74219 363.38477 774.49219 352.38477 796.74219 330.38477 C 842.29541 283.9214 840.66645 201.88049 797.49219 147.50977 C 775.74219 125.00977 747.11719 113.75977 711.61719 113.75977 z M 341.36328 134.68945 C 348.47879 134.63545 355.5984 139.17358 362.25 149.88477 C 370.5 160.63477 374.625 194.00977 374.625 214.00977 C 374.625 234.00977 370.625 263.38477 362.625 274.13477 C 347.6702 294.99284 338.61231 296.4099 317.5 274.50977 C 309.75 263.75977 305.875 234.50977 305.875 214.75977 C 305.875 194.75977 309.875 161.25977 317.875 150.25977 C 325.24013 140.70985 333.29904 134.75065 341.36328 134.68945 z M 710.86719 185.75977 C 722.86719 185.75977 732.86719 191.13477 740.86719 201.88477 C 757.3132 223.51092 757.80448 251.19171 741.24219 274.13477 C 733.49219 284.88477 723.24219 290.25977 710.49219 290.25977 C 697.99219 290.25977 687.86719 285.00977 680.11719 274.50977 C 663.94544 252.18557 664.5126 228.19277 680.49219 202.25977 C 688.74219 191.25977 698.86719 185.75977 710.86719 185.75977 z M 673.53711 229.3125 C 671.03211 244.47635 674.60375 258.93947 684.61523 272.75977 C 685.86474 274.45264 687.17831 276.00349 688.55273 277.41992 L 687.68359 232.04883 C 687.68359 231.05732 681.98301 230.14672 673.53711 229.3125 z "
       transform="translate(-99.310204,308.89682)"
       id="path4185" />
  </g>
</svg>
